<svg xmlns="http://www.w3.org/2000/svg" xmlns:xlink="http://www.w3.org/1999/xlink" width="2240" zoomAndPan="magnify" viewBox="0 0 1680 944.999993" height="1260" preserveAspectRatio="xMidYMid meet" version="1.0"><path fill="#ffcc00" d="M 690.359375 791.8125 L 910.5 586.683594 C 881.785156 521.613281 909.980469 424.132812 984.96875 349.199219 L 1123.875 210.363281 L 1087.378906 173.886719 L 855.425781 390.011719 C 884.125 455.082031 855.910156 552.546875 780.941406 627.460938 C 729.050781 679.324219 666.339844 708.726562 611.03125 712.507812 Z M 690.359375 791.8125 " fill-opacity="1" fill-rule="nonzero"/><path fill="#5bd2bc" d="M 997.554688 435.847656 C 1006.917969 445.203125 1022.09375 445.203125 1031.457031 435.847656 L 1190.472656 276.910156 L 1156.570312 243.042969 L 997.554688 401.980469 C 988.191406 411.320312 988.191406 426.488281 997.554688 435.847656 Z M 997.554688 435.847656 " fill-opacity="1" fill-rule="nonzero"/><path fill="#5bd2bc" d="M 1119.589844 523.953125 C 1110.226562 533.308594 1110.226562 548.480469 1119.589844 557.835938 C 1128.953125 567.195312 1144.128906 567.195312 1153.492188 557.835938 L 1312.3125 399.101562 C 1311.070312 397.769531 1309.953125 396.347656 1308.65625 395.050781 L 1278.605469 365.015625 Z M 1119.589844 523.953125 " fill-opacity="1" fill-rule="nonzero"/><path fill="#ff5900" d="M 562.164062 408.800781 C 637.136719 333.867188 734.632812 305.667969 799.738281 334.351562 L 1015.972656 102.519531 L 997.390625 83.949219 C 943.164062 29.746094 855.246094 29.746094 801.035156 83.949219 L 489.75 395.050781 C 440.164062 444.609375 436.078125 522.242188 477.164062 576.625 C 481.523438 521.828125 510.90625 460.03125 562.164062 408.800781 Z M 562.164062 408.800781 " fill-opacity="1" fill-rule="nonzero"/><path fill="#5bd2bc" d="M 1093.25 497.625 L 1252.265625 338.6875 L 1218.363281 304.804688 L 1059.347656 463.738281 C 1049.984375 473.097656 1049.984375 488.265625 1059.347656 497.625 C 1068.707031 506.980469 1083.886719 506.980469 1093.25 497.625 Z M 1093.25 497.625 " fill-opacity="1" fill-rule="nonzero"/><path fill="#5bd2bc" d="M 1203.761719 567.859375 C 1128.773438 642.808594 1031.257812 670.992188 966.152344 642.289062 L 760.917969 862.316406 L 801.035156 902.410156 C 855.261719 956.613281 943.179688 956.613281 997.390625 902.410156 L 1308.65625 591.308594 C 1350.914062 549.074219 1360.078125 486.46875 1336.492188 435.199219 Z M 1203.761719 567.859375 " fill-opacity="1" fill-rule="nonzero"/></svg>